<svg width="243" height="80" viewBox="0 0 243 80" fill="none" xmlns="http://www.w3.org/2000/svg">
<circle cx="225" cy="22" r="10" fill="#2F54EB"/>
<path d="M34.25 44.1364V24.0909H43.9318V59H34.6364V52.6591H34.2727C33.4848 54.7045 32.1742 56.3485 30.3409 57.5909C28.5227 58.8333 26.303 59.4545 23.6818 59.4545C21.3485 59.4545 19.2955 58.9242 17.5227 57.8636C15.75 56.803 14.3636 55.2955 13.3636 53.3409C12.3788 51.3864 11.8788 49.0455 11.8636 46.3182V24.0909H21.5455V44.5909C21.5606 46.6515 22.1136 48.2803 23.2045 49.4773C24.2955 50.6742 25.7576 51.2727 27.5909 51.2727C28.7576 51.2727 29.8485 51.0076 30.8636 50.4773C31.8788 49.9318 32.697 49.1288 33.3182 48.0682C33.9545 47.0076 34.2652 45.697 34.25 44.1364ZM59.7752 59L46.457 12.4545H57.207L64.9116 44.7955H65.298L73.798 12.4545H83.0025L91.4798 44.8636H91.8889L99.5934 12.4545H110.343L97.0252 59H87.4343L78.5707 28.5682H78.207L69.3661 59H59.7752ZM125.028 59.6818C121.437 59.6818 118.346 58.9545 115.755 57.5C113.179 56.0303 111.194 53.9545 109.8 51.2727C108.407 48.5758 107.71 45.3864 107.71 41.7045C107.71 38.1136 108.407 34.9621 109.8 32.25C111.194 29.5379 113.157 27.4242 115.687 25.9091C118.232 24.3939 121.217 23.6364 124.641 23.6364C126.944 23.6364 129.088 24.0076 131.073 24.75C133.073 25.4773 134.816 26.5758 136.3 28.0455C137.8 29.5152 138.967 31.3636 139.8 33.5909C140.634 35.803 141.05 38.3939 141.05 41.3636V44.0227H111.573V38.0227H131.937C131.937 36.6288 131.634 35.3939 131.028 34.3182C130.422 33.2424 129.581 32.4015 128.505 31.7955C127.444 31.1742 126.21 30.8636 124.8 30.8636C123.331 30.8636 122.028 31.2045 120.891 31.8864C119.77 32.553 118.891 33.4545 118.255 34.5909C117.619 35.7121 117.293 36.9621 117.278 38.3409V44.0455C117.278 45.7727 117.596 47.2652 118.232 48.5227C118.884 49.7803 119.8 50.75 120.982 51.4318C122.164 52.1136 123.566 52.4545 125.187 52.4545C126.263 52.4545 127.247 52.303 128.141 52C129.035 51.697 129.8 51.2424 130.437 50.6364C131.073 50.0303 131.558 49.2879 131.891 48.4091L140.846 49C140.391 51.1515 139.46 53.0303 138.05 54.6364C136.657 56.2273 134.853 57.4697 132.641 58.3636C130.444 59.2424 127.907 59.6818 125.028 59.6818ZM144.99 59V12.4545H154.672V29.9545H154.968C155.392 29.0152 156.006 28.0606 156.809 27.0909C157.627 26.1061 158.687 25.2879 159.99 24.6364C161.309 23.9697 162.945 23.6364 164.9 23.6364C167.445 23.6364 169.793 24.303 171.945 25.6364C174.097 26.9545 175.816 28.947 177.104 31.6136C178.392 34.2652 179.036 37.5909 179.036 41.5909C179.036 45.4848 178.407 48.7727 177.15 51.4545C175.907 54.1212 174.21 56.1439 172.059 57.5227C169.922 58.8864 167.528 59.5682 164.877 59.5682C162.998 59.5682 161.4 59.2576 160.081 58.6364C158.778 58.0152 157.71 57.2348 156.877 56.2955C156.043 55.3409 155.407 54.3788 154.968 53.4091H154.536V59H144.99ZM154.468 41.5455C154.468 43.6212 154.756 45.4318 155.331 46.9773C155.907 48.5227 156.74 49.7273 157.831 50.5909C158.922 51.4394 160.248 51.8636 161.809 51.8636C163.384 51.8636 164.718 51.4318 165.809 50.5682C166.9 49.6894 167.725 48.4773 168.286 46.9318C168.862 45.3712 169.15 43.5758 169.15 41.5455C169.15 39.5303 168.869 37.7576 168.309 36.2273C167.748 34.697 166.922 33.5 165.831 32.6364C164.74 31.7727 163.4 31.3409 161.809 31.3409C160.233 31.3409 158.9 31.7576 157.809 32.5909C156.733 33.4242 155.907 34.6061 155.331 36.1364C154.756 37.6667 154.468 39.4697 154.468 41.5455ZM183.118 59V12.4545H192.8V29.9545H193.095C193.519 29.0152 194.133 28.0606 194.936 27.0909C195.754 26.1061 196.815 25.2879 198.118 24.6364C199.436 23.9697 201.072 23.6364 203.027 23.6364C205.572 23.6364 207.921 24.303 210.072 25.6364C212.224 26.9545 213.944 28.947 215.232 31.6136C216.519 34.2652 217.163 37.5909 217.163 41.5909C217.163 45.4848 216.535 48.7727 215.277 51.4545C214.035 54.1212 212.338 56.1439 210.186 57.5227C208.05 58.8864 205.656 59.5682 203.004 59.5682C201.126 59.5682 199.527 59.2576 198.209 58.6364C196.906 58.0152 195.838 57.2348 195.004 56.2955C194.171 55.3409 193.535 54.3788 193.095 53.4091H192.663V59H183.118ZM192.595 41.5455C192.595 43.6212 192.883 45.4318 193.459 46.9773C194.035 48.5227 194.868 49.7273 195.959 50.5909C197.05 51.4394 198.376 51.8636 199.936 51.8636C201.512 51.8636 202.845 51.4318 203.936 50.5682C205.027 49.6894 205.853 48.4773 206.413 46.9318C206.989 45.3712 207.277 43.5758 207.277 41.5455C207.277 39.5303 206.997 37.7576 206.436 36.2273C205.876 34.697 205.05 33.5 203.959 32.6364C202.868 31.7727 201.527 31.3409 199.936 31.3409C198.36 31.3409 197.027 31.7576 195.936 32.5909C194.86 33.4242 194.035 34.6061 193.459 36.1364C192.883 37.6667 192.595 39.4697 192.595 41.5455Z" fill="#141414"/>
<rect x="8" y="64" width="104" height="8" fill="#2F54EB"/>
<path d="M160.912 72.6364V66.6364H161.403V67.4688H161.463C161.523 67.3381 161.607 67.2045 161.713 67.0682C161.819 66.9299 161.959 66.8134 162.133 66.7188C162.309 66.6241 162.531 66.5767 162.798 66.5767C163.158 66.5767 163.472 66.6714 163.741 66.8608C164.012 67.0483 164.222 67.3116 164.372 67.6506C164.523 67.9877 164.599 68.3807 164.599 68.8295C164.599 69.2803 164.523 69.6752 164.372 70.0142C164.222 70.3532 164.012 70.6174 163.741 70.8068C163.472 70.9962 163.16 71.0909 162.804 71.0909C162.54 71.0909 162.32 71.0436 162.142 70.9489C161.966 70.8542 161.823 70.7377 161.713 70.5994C161.605 70.4593 161.522 70.3229 161.463 70.1903H161.417V72.6364H160.912ZM161.412 68.821C161.412 69.1733 161.464 69.4858 161.568 69.7585C161.674 70.0294 161.826 70.2424 162.022 70.3977C162.221 70.5511 162.462 70.6278 162.744 70.6278C163.034 70.6278 163.278 70.5483 163.477 70.3892C163.678 70.2282 163.83 70.0114 163.934 69.7386C164.04 69.4659 164.093 69.16 164.093 68.821C164.093 68.4858 164.041 68.1837 163.937 67.9148C163.835 67.6458 163.683 67.4328 163.483 67.2756C163.282 67.1165 163.036 67.0369 162.744 67.0369C162.46 67.0369 162.218 67.1136 162.02 67.267C161.821 67.4186 161.669 67.6288 161.565 67.8977C161.463 68.1648 161.412 68.4725 161.412 68.821ZM167.085 71.0909C166.708 71.0909 166.374 70.9953 166.085 70.804C165.797 70.6127 165.571 70.3485 165.408 70.0114C165.246 69.6723 165.164 69.2812 165.164 68.8381C165.164 68.3911 165.246 67.9981 165.408 67.6591C165.571 67.3182 165.797 67.053 166.085 66.8636C166.374 66.6723 166.708 66.5767 167.085 66.5767C167.461 66.5767 167.794 66.6723 168.082 66.8636C168.37 67.0549 168.595 67.3201 168.758 67.6591C168.923 67.9981 169.005 68.3911 169.005 68.8381C169.005 69.2812 168.924 69.6723 168.761 70.0114C168.598 70.3485 168.372 70.6127 168.082 70.804C167.794 70.9953 167.461 71.0909 167.085 71.0909ZM167.085 70.6278C167.388 70.6278 167.644 70.5464 167.854 70.3835C168.065 70.2206 168.224 70.0038 168.332 69.733C168.442 69.4621 168.497 69.1638 168.497 68.8381C168.497 68.5123 168.442 68.2131 168.332 67.9403C168.224 67.6676 168.065 67.4489 167.854 67.2841C167.644 67.1193 167.388 67.0369 167.085 67.0369C166.783 67.0369 166.527 67.1193 166.315 67.2841C166.104 67.4489 165.944 67.6676 165.835 67.9403C165.727 68.2131 165.673 68.5123 165.673 68.8381C165.673 69.1638 165.727 69.4621 165.835 69.733C165.944 70.0038 166.104 70.2206 166.315 70.3835C166.525 70.5464 166.782 70.6278 167.085 70.6278ZM170.615 71L169.297 66.6364H169.831L170.865 70.2358H170.902L171.934 66.6364H172.471L173.493 70.2273H173.533L174.567 66.6364H175.101L173.783 71H173.26L172.226 67.4233H172.172L171.138 71H170.615ZM177.38 71.0909C176.973 71.0909 176.62 70.9962 176.323 70.8068C176.026 70.6155 175.796 70.3513 175.633 70.0142C175.472 69.6752 175.391 69.285 175.391 68.8438C175.391 68.4044 175.472 68.0142 175.633 67.6733C175.796 67.3305 176.02 67.0625 176.306 66.8693C176.594 66.6742 176.926 66.5767 177.303 66.5767C177.54 66.5767 177.768 66.6203 177.988 66.7074C178.208 66.7926 178.405 66.9242 178.579 67.1023C178.755 67.2784 178.894 67.5009 178.996 67.7699C179.099 68.0369 179.15 68.3532 179.15 68.7188V68.9688H175.741V68.5227H178.633C178.633 68.2424 178.576 67.9905 178.462 67.767C178.351 67.5417 178.194 67.3636 177.994 67.233C177.795 67.1023 177.565 67.0369 177.303 67.0369C177.027 67.0369 176.783 67.1108 176.573 67.2585C176.363 67.4062 176.198 67.6013 176.079 67.8438C175.961 68.0862 175.902 68.3513 175.9 68.6392V68.9062C175.9 69.2528 175.959 69.5559 176.079 69.8153C176.2 70.0729 176.371 70.2727 176.593 70.4148C176.815 70.5568 177.077 70.6278 177.38 70.6278C177.586 70.6278 177.767 70.5956 177.923 70.5312C178.08 70.4669 178.211 70.3807 178.317 70.2727C178.425 70.1629 178.507 70.0426 178.562 69.9119L179.042 70.0682C178.976 70.2519 178.867 70.4214 178.715 70.5767C178.566 70.732 178.378 70.857 178.153 70.9517C177.929 71.0445 177.672 71.0909 177.38 71.0909ZM179.944 71V66.6364H180.436V67.3068H180.473C180.56 67.0871 180.711 66.91 180.927 66.7756C181.145 66.6392 181.391 66.571 181.666 66.571C181.707 66.571 181.754 66.572 181.805 66.5739C181.856 66.5758 181.899 66.5777 181.933 66.5795V67.0938C181.91 67.09 181.87 67.0843 181.813 67.0767C181.757 67.0691 181.695 67.0653 181.629 67.0653C181.402 67.0653 181.199 67.1136 181.021 67.2102C180.845 67.3049 180.706 67.4366 180.603 67.6051C180.501 67.7737 180.45 67.9659 180.45 68.1818V71H179.944ZM184.107 71.0909C183.7 71.0909 183.348 70.9962 183.05 70.8068C182.753 70.6155 182.523 70.3513 182.36 70.0142C182.199 69.6752 182.118 69.285 182.118 68.8438C182.118 68.4044 182.199 68.0142 182.36 67.6733C182.523 67.3305 182.747 67.0625 183.033 66.8693C183.321 66.6742 183.654 66.5767 184.03 66.5767C184.267 66.5767 184.495 66.6203 184.715 66.7074C184.935 66.7926 185.132 66.9242 185.306 67.1023C185.482 67.2784 185.621 67.5009 185.724 67.7699C185.826 68.0369 185.877 68.3532 185.877 68.7188V68.9688H182.468V68.5227H185.36C185.36 68.2424 185.303 67.9905 185.19 67.767C185.078 67.5417 184.922 67.3636 184.721 67.233C184.522 67.1023 184.292 67.0369 184.03 67.0369C183.754 67.0369 183.511 67.1108 183.3 67.2585C183.09 67.4062 182.925 67.6013 182.806 67.8438C182.689 68.0862 182.629 68.3513 182.627 68.6392V68.9062C182.627 69.2528 182.687 69.5559 182.806 69.8153C182.927 70.0729 183.099 70.2727 183.32 70.4148C183.542 70.5568 183.804 70.6278 184.107 70.6278C184.314 70.6278 184.494 70.5956 184.65 70.5312C184.807 70.4669 184.939 70.3807 185.045 70.2727C185.153 70.1629 185.234 70.0426 185.289 69.9119L185.769 70.0682C185.703 70.2519 185.594 70.4214 185.442 70.5767C185.293 70.732 185.105 70.857 184.88 70.9517C184.656 71.0445 184.399 71.0909 184.107 71.0909ZM188.242 71.0909C187.884 71.0909 187.571 70.9962 187.302 70.8068C187.033 70.6174 186.823 70.3532 186.671 70.0142C186.522 69.6752 186.447 69.2803 186.447 68.8295C186.447 68.3807 186.522 67.9877 186.671 67.6506C186.823 67.3116 187.034 67.0483 187.305 66.8608C187.576 66.6714 187.891 66.5767 188.251 66.5767C188.516 66.5767 188.737 66.6241 188.913 66.7188C189.089 66.8116 189.23 66.9271 189.336 67.0653C189.442 67.2036 189.525 67.3381 189.583 67.4688H189.629V65.1818H190.137V71H189.643V70.1903H189.583C189.525 70.3229 189.441 70.4593 189.333 70.5994C189.225 70.7377 189.082 70.8542 188.904 70.9489C188.728 71.0436 188.508 71.0909 188.242 71.0909ZM188.302 70.6278C188.584 70.6278 188.825 70.5511 189.024 70.3977C189.223 70.2424 189.374 70.0294 189.478 69.7585C189.584 69.4858 189.637 69.1733 189.637 68.821C189.637 68.4725 189.585 68.1648 189.481 67.8977C189.377 67.6288 189.225 67.4186 189.026 67.267C188.828 67.1136 188.586 67.0369 188.302 67.0369C188.01 67.0369 187.764 67.1165 187.563 67.2756C187.365 67.4328 187.213 67.6458 187.109 67.9148C187.007 68.1837 186.955 68.4858 186.955 68.821C186.955 69.16 187.008 69.4659 187.112 69.7386C187.216 70.0114 187.367 70.2282 187.566 70.3892C187.767 70.5483 188.012 70.6278 188.302 70.6278ZM193.293 71V65.1818H193.801V67.4688H193.847C193.904 67.3381 193.985 67.2036 194.091 67.0653C194.199 66.9271 194.34 66.8116 194.514 66.7188C194.69 66.6241 194.912 66.5767 195.179 66.5767C195.537 66.5767 195.851 66.6714 196.122 66.8608C196.393 67.0483 196.604 67.3116 196.756 67.6506C196.907 67.9877 196.983 68.3807 196.983 68.8295C196.983 69.2803 196.907 69.6752 196.756 70.0142C196.606 70.3532 196.396 70.6174 196.125 70.8068C195.856 70.9962 195.544 71.0909 195.188 71.0909C194.922 71.0909 194.701 71.0436 194.523 70.9489C194.347 70.8542 194.205 70.7377 194.097 70.5994C193.989 70.4593 193.905 70.3229 193.847 70.1903H193.784V71H193.293ZM193.793 68.821C193.793 69.1733 193.845 69.4858 193.949 69.7585C194.055 70.0294 194.207 70.2424 194.404 70.3977C194.602 70.5511 194.843 70.6278 195.125 70.6278C195.415 70.6278 195.66 70.5483 195.861 70.3892C196.062 70.2282 196.214 70.0114 196.318 69.7386C196.422 69.4659 196.475 69.16 196.475 68.821C196.475 68.4858 196.422 68.1837 196.318 67.9148C196.216 67.6458 196.065 67.4328 195.864 67.2756C195.663 67.1165 195.417 67.0369 195.125 67.0369C194.841 67.0369 194.6 67.1136 194.401 67.267C194.204 67.4186 194.053 67.6288 193.949 67.8977C193.845 68.1648 193.793 68.4725 193.793 68.821ZM197.97 72.6364C197.87 72.6364 197.776 72.6269 197.689 72.608C197.602 72.589 197.532 72.5682 197.481 72.5455L197.618 72.0994C197.79 72.1525 197.943 72.1714 198.078 72.1562C198.212 72.143 198.332 72.0824 198.436 71.9744C198.54 71.8684 198.633 71.7055 198.714 71.4858L198.873 71.0426L197.268 66.6364H197.816L199.112 70.3324H199.152L200.447 66.6364H200.995L199.149 71.6903C199.071 71.9006 198.976 72.0758 198.862 72.2159C198.748 72.358 198.617 72.4631 198.467 72.5312C198.319 72.6013 198.154 72.6364 197.97 72.6364ZM206.368 69.3324V66.6364H206.873V71H206.368V70.2756H206.328C206.225 70.4991 206.064 70.6856 205.842 70.8352C205.62 70.983 205.35 71.0568 205.029 71.0568C204.751 71.0568 204.504 70.9962 204.288 70.875C204.072 70.7519 203.903 70.572 203.779 70.3352C203.656 70.0985 203.595 69.8078 203.595 69.4631V66.6364H204.1V69.4318C204.1 69.7727 204.201 70.0473 204.402 70.2557C204.602 70.4621 204.86 70.5653 205.174 70.5653C205.371 70.5653 205.561 70.518 205.743 70.4233C205.924 70.3286 206.074 70.1903 206.191 70.0085C206.309 69.8248 206.368 69.5994 206.368 69.3324ZM208.398 68.2727V71H207.892V66.6364H208.383V67.321H208.429C208.531 67.0975 208.69 66.9186 208.906 66.7841C209.124 66.6477 209.393 66.5795 209.713 66.5795C210.007 66.5795 210.264 66.6411 210.486 66.7642C210.709 66.8854 210.883 67.0644 211.006 67.3011C211.131 67.5379 211.193 67.8286 211.193 68.1733V71H210.687V68.2045C210.687 67.8466 210.587 67.5634 210.386 67.3551C210.187 67.1468 209.92 67.0426 209.585 67.0426C209.356 67.0426 209.152 67.0919 208.974 67.1903C208.796 67.2888 208.655 67.4309 208.551 67.6165C208.449 67.8002 208.398 68.0189 208.398 68.2727ZM213.776 71.0909C213.418 71.0909 213.104 70.9962 212.835 70.8068C212.567 70.6174 212.356 70.3532 212.205 70.0142C212.055 69.6752 211.98 69.2803 211.98 68.8295C211.98 68.3807 212.055 67.9877 212.205 67.6506C212.356 67.3116 212.567 67.0483 212.838 66.8608C213.109 66.6714 213.425 66.5767 213.784 66.5767C214.05 66.5767 214.27 66.6241 214.446 66.7188C214.622 66.8116 214.764 66.9271 214.87 67.0653C214.976 67.2036 215.058 67.3381 215.117 67.4688H215.162V65.1818H215.671V71H215.176V70.1903H215.117C215.058 70.3229 214.975 70.4593 214.867 70.5994C214.759 70.7377 214.616 70.8542 214.438 70.9489C214.262 71.0436 214.041 71.0909 213.776 71.0909ZM213.835 70.6278C214.118 70.6278 214.358 70.5511 214.557 70.3977C214.756 70.2424 214.907 70.0294 215.012 69.7585C215.118 69.4858 215.171 69.1733 215.171 68.821C215.171 68.4725 215.119 68.1648 215.014 67.8977C214.91 67.6288 214.759 67.4186 214.56 67.267C214.361 67.1136 214.12 67.0369 213.835 67.0369C213.544 67.0369 213.298 67.1165 213.097 67.2756C212.898 67.4328 212.746 67.6458 212.642 67.9148C212.54 68.1837 212.489 68.4858 212.489 68.821C212.489 69.16 212.541 69.4659 212.645 69.7386C212.749 70.0114 212.901 70.2282 213.1 70.3892C213.3 70.5483 213.546 70.6278 213.835 70.6278ZM218.555 71.0909C218.148 71.0909 217.796 70.9962 217.498 70.8068C217.201 70.6155 216.971 70.3513 216.808 70.0142C216.647 69.6752 216.567 69.285 216.567 68.8438C216.567 68.4044 216.647 68.0142 216.808 67.6733C216.971 67.3305 217.195 67.0625 217.481 66.8693C217.769 66.6742 218.102 66.5767 218.479 66.5767C218.715 66.5767 218.944 66.6203 219.163 66.7074C219.383 66.7926 219.58 66.9242 219.754 67.1023C219.93 67.2784 220.069 67.5009 220.172 67.7699C220.274 68.0369 220.325 68.3532 220.325 68.7188V68.9688H216.916V68.5227H219.808C219.808 68.2424 219.751 67.9905 219.638 67.767C219.526 67.5417 219.37 67.3636 219.169 67.233C218.97 67.1023 218.74 67.0369 218.479 67.0369C218.202 67.0369 217.959 67.1108 217.748 67.2585C217.538 67.4062 217.373 67.6013 217.254 67.8438C217.137 68.0862 217.077 68.3513 217.075 68.6392V68.9062C217.075 69.2528 217.135 69.5559 217.254 69.8153C217.375 70.0729 217.547 70.2727 217.768 70.4148C217.99 70.5568 218.252 70.6278 218.555 70.6278C218.762 70.6278 218.943 70.5956 219.098 70.5312C219.255 70.4669 219.387 70.3807 219.493 70.2727C219.601 70.1629 219.682 70.0426 219.737 69.9119L220.217 70.0682C220.151 70.2519 220.042 70.4214 219.89 70.5767C219.741 70.732 219.553 70.857 219.328 70.9517C219.105 71.0445 218.847 71.0909 218.555 71.0909ZM221.119 71V66.6364H221.611V67.3068H221.648C221.735 67.0871 221.887 66.91 222.102 66.7756C222.32 66.6392 222.566 66.571 222.841 66.571C222.883 66.571 222.929 66.572 222.98 66.5739C223.031 66.5758 223.074 66.5777 223.108 66.5795V67.0938C223.085 67.09 223.046 67.0843 222.989 67.0767C222.932 67.0691 222.87 67.0653 222.804 67.0653C222.577 67.0653 222.374 67.1136 222.196 67.2102C222.02 67.3049 221.881 67.4366 221.779 67.6051C221.676 67.7737 221.625 67.9659 221.625 68.1818V71H221.119ZM224.157 65.1818V71H223.651V65.1818H224.157ZM225.18 71V66.6364H225.689V71H225.18ZM225.439 65.8864C225.335 65.8864 225.246 65.8513 225.172 65.7812C225.098 65.7093 225.061 65.6231 225.061 65.5227C225.061 65.4223 225.098 65.3371 225.172 65.267C225.246 65.1951 225.335 65.1591 225.439 65.1591C225.543 65.1591 225.632 65.1951 225.706 65.267C225.78 65.3371 225.817 65.4223 225.817 65.5227C225.817 65.6231 225.78 65.7093 225.706 65.7812C225.632 65.8513 225.543 65.8864 225.439 65.8864ZM227.212 68.2727V71H226.706V66.6364H227.198V67.321H227.243C227.346 67.0975 227.505 66.9186 227.721 66.7841C227.938 66.6477 228.207 66.5795 228.527 66.5795C228.821 66.5795 229.079 66.6411 229.3 66.7642C229.524 66.8854 229.697 67.0644 229.82 67.3011C229.945 67.5379 230.007 67.8286 230.007 68.1733V71H229.502V68.2045C229.502 67.8466 229.401 67.5634 229.201 67.3551C229.002 67.1468 228.735 67.0426 228.4 67.0426C228.17 67.0426 227.967 67.0919 227.789 67.1903C227.611 67.2888 227.47 67.4309 227.365 67.6165C227.263 67.8002 227.212 68.0189 227.212 68.2727ZM232.783 71.0909C232.376 71.0909 232.024 70.9962 231.727 70.8068C231.429 70.6155 231.199 70.3513 231.036 70.0142C230.875 69.6752 230.795 69.285 230.795 68.8438C230.795 68.4044 230.875 68.0142 231.036 67.6733C231.199 67.3305 231.424 67.0625 231.71 66.8693C231.997 66.6742 232.33 66.5767 232.707 66.5767C232.943 66.5767 233.172 66.6203 233.391 66.7074C233.611 66.7926 233.808 66.9242 233.982 67.1023C234.158 67.2784 234.298 67.5009 234.4 67.7699C234.502 68.0369 234.553 68.3532 234.553 68.7188V68.9688H231.144V68.5227H234.036C234.036 68.2424 233.979 67.9905 233.866 67.767C233.754 67.5417 233.598 67.3636 233.397 67.233C233.198 67.1023 232.968 67.0369 232.707 67.0369C232.43 67.0369 232.187 67.1108 231.977 67.2585C231.766 67.4062 231.602 67.6013 231.482 67.8438C231.365 68.0862 231.305 68.3513 231.303 68.6392V68.9062C231.303 69.2528 231.363 69.5559 231.482 69.8153C231.603 70.0729 231.775 70.2727 231.996 70.4148C232.218 70.5568 232.48 70.6278 232.783 70.6278C232.99 70.6278 233.171 70.5956 233.326 70.5312C233.483 70.4669 233.615 70.3807 233.721 70.2727C233.829 70.1629 233.91 70.0426 233.965 69.9119L234.445 70.0682C234.379 70.2519 234.27 70.4214 234.119 70.5767C233.969 70.732 233.781 70.857 233.556 70.9517C233.333 71.0445 233.075 71.0909 232.783 71.0909Z" fill="#595959"/>
<path d="M202.927 72.5909H234.996V73.1364H202.927V72.5909Z" fill="#595959"/>
</svg>
